# xmcd CD database file
#
# Track frame offsets:
#	150
#	17775
#	35287
#	50957
#	61957
#	76770
#	93857
#	110260
#	125722
#	140285
#	153925
#	180540
#
# Disc length: 2463 seconds
#
# Revision: 0
# Processed by: cddbd v1.5.1PL0 Copyright (c) Steve Scherf et al.
# Submitted via: CDex 1.51
#
DISCID=94099d0c
DTITLE=Among Thieves - Soundscam
DYEAR=2003
DGENRE=General Rock
TTITLE0=Consequence
TTITLE1=Problems Of My Own
TTITLE2=Seize The Day
TTITLE3=Wait You Out(Live)
TTITLE4=My Mistake(Live)
TTITLE5=Consequence(Live)
TTITLE6=Problems Of My Own(Live)
TTITLE7=Rebound(Live)
TTITLE8=Feels Like Failure(Live)
TTITLE9=Pass Me By(Live)
TTITLE10=Voices(Demo Version)
TTITLE11=Data Track
EXTD=YEAR: 2003
EXTT0=
EXTT1=
EXTT2=
EXTT3=
EXTT4=
EXTT5=
EXTT6=
EXTT7=
EXTT8=
EXTT9=
EXTT10=
EXTT11=
PLAYORDER=
